# xmcd CD database file
#
# Track frame offsets:
#	150
#	8573
#	21859
#	35460
#	50725
#	64369
#	89355
#	106330
#	125946
#	139808
#	160472
#	176994
#
# Disc length: 2408 seconds
#
# Revision: 3
# Processed by: cddbd v1.4PL0 Copyright (c) Steve Scherf et al.
# Submitted via: Feurio! 1.65 - http://www.feurio.com
#
DISCID=ae09660c
DTITLE=Blues Brothers - Briefcase full of blues
DYEAR=1900
DGENRE=blues
TTITLE0=I can't turn you loose
TTITLE1=Hey Bartender
TTITLE2=Messin' with the kid
TTITLE3=(I've got everything i need) Almost
TTITLE4=Rubber Biscuit
TTITLE5=Shot gun blues
TTITLE6=Groove me
TTITLE7=I don't know
TTITLE8=Soul Man
TTITLE9="B" Movie box car blues
TTITLE10=Flip, Flop and Fly
TTITLE11=Closing: I can't Turn you loose
EXTD=
EXTT0=
EXTT1=
EXTT2=
EXTT3=
EXTT4=
EXTT5=
EXTT6=
EXTT7=
EXTT8=
EXTT9=
EXTT10=
EXTT11=
PLAYORDER=
